<svg version="1.1" id="Layer_1" xmlns="http://www.w3.org/2000/svg" xmlns:xlink="http://www.w3.org/1999/xlink" x="0px" y="0px"
	 width="100%" viewBox="0 0 1024 368" enable-background="new 0 0 1024 368" xml:space="preserve">
<path fill="#000000" opacity="1.000000" stroke="none" 
	d="
M520.251465,197.648422 
	C520.493530,199.651810 520.279846,201.456802 522.350769,202.295746 
	C524.794983,200.956085 525.194580,198.358749 525.997437,196.084503 
	C540.517944,154.952652 555.079651,113.834885 569.387085,72.628860 
	C570.955994,68.110359 572.962769,66.448906 577.840759,66.472832 
	C600.823425,66.585579 623.809692,66.039848 646.791626,66.195564 
	C665.447754,66.321960 684.102356,66.993118 702.750000,66.049118 
	C707.150391,65.826340 709.237976,67.030731 709.828003,71.902016 
	C712.065552,90.375107 714.800537,108.787712 717.322937,127.226570 
	C719.845703,145.668076 722.333984,164.114304 724.843018,182.557693 
	C725.649292,188.484711 726.471130,194.409622 727.291382,200.334747 
	C727.445068,201.444672 727.238770,202.747635 728.856628,203.222855 
	C731.027100,202.690979 731.057800,200.552856 731.619873,198.958801 
	C746.459900,156.878586 761.302490,114.799034 775.959167,72.654877 
	C777.483032,68.273048 779.459106,66.376732 784.386841,66.416733 
	C803.537598,66.572182 822.692261,66.237694 841.845642,66.117599 
	C843.478821,66.107361 845.214417,65.968269 846.671204,67.542686 
	C846.174622,71.093269 844.302246,74.282906 842.895874,77.589783 
	C816.302612,140.120178 789.752136,202.669266 762.932190,265.102539 
	C753.851868,286.240295 743.710815,306.875397 729.945068,325.501404 
	C714.949280,345.791901 696.196716,360.436493 670.677063,364.695557 
	C650.904602,367.995422 631.541199,366.149567 612.672363,359.272614 
	C609.502258,358.117279 608.288635,356.512573 609.267517,352.885803 
	C612.994324,339.078979 616.466187,325.202087 619.906738,311.320007 
	C620.837585,307.564240 622.528503,307.050507 625.960510,308.589783 
	C637.542542,313.784515 649.547424,315.848969 661.900574,311.661926 
	C677.030151,306.533813 685.863281,295.147217 692.095154,281.135590 
	C689.961121,279.489380 687.827820,279.178802 686.001160,279.526245 
	C680.247375,280.620575 678.741272,277.741028 677.836487,272.682709 
	C669.906372,228.345612 661.760498,184.047073 653.659546,139.740585 
	C649.683594,117.995155 645.672485,96.256149 641.658997,74.517609 
	C641.362366,72.910995 640.917908,71.331680 640.237366,68.447517 
	C637.169067,75.562691 634.547607,81.582893 631.972168,87.622704 
	C606.822632,146.603470 581.717163,205.603058 556.517639,264.562469 
	C547.202576,286.356903 536.768555,307.572693 522.449707,326.622131 
	C507.506134,346.502716 488.753632,360.643768 463.605560,364.748016 
	C443.805634,367.979431 424.475220,365.989441 405.622925,359.085510 
	C402.446411,357.922272 401.757233,356.257690 402.631470,353.016174 
	C406.356323,339.205048 410.007050,325.368744 413.315491,311.453766 
	C414.291595,307.348419 415.918152,307.256622 419.201782,308.666351 
	C429.662567,313.157379 440.458893,315.368195 451.820831,312.652466 
	C467.371155,308.935638 476.807709,298.139038 483.917389,284.740417 
	C485.874878,281.051331 483.229095,279.286285 480.370331,279.700592 
	C472.935760,280.778046 471.904999,276.548859 470.871643,270.688934 
	C464.319885,233.536957 457.447357,196.441513 450.669556,159.329453 
	C445.235199,129.573517 439.783264,99.820786 434.352539,70.064178 
	C434.207733,69.270805 434.217407,68.449234 434.144470,67.503937 
	C437.562836,65.924248 441.158783,66.270744 444.519104,66.347221 
	C461.680786,66.737762 478.830719,66.702492 495.986938,66.122406 
	C502.281708,65.909569 502.547791,66.555046 503.335083,72.739464 
	C505.580139,90.375206 507.997955,107.989189 510.396149,125.605156 
	C513.647583,149.489105 516.943909,173.366959 520.251465,197.648422 
z"/>
<path fill="#000000" opacity="1.000000" stroke="none" 
	d="
M6.766002,256.117584 
	C9.091739,237.365860 11.378427,219.063690 13.664490,200.761444 
	C16.897434,174.878479 20.170910,149.000473 23.350378,123.110924 
	C26.185522,100.025131 28.887682,76.923027 31.705061,53.835026 
	C33.213936,41.469997 35.038124,29.139570 36.304806,16.751074 
	C36.720963,12.680932 38.759022,11.416360 42.198479,10.759436 
	C55.599957,8.199803 69.089935,6.207377 82.662231,4.915875 
	C101.063744,3.164838 119.519226,2.036953 138.012604,2.743835 
	C152.338806,3.291433 166.485016,5.090499 180.227722,9.584085 
	C206.271271,18.099812 221.449127,35.913879 225.038055,62.905907 
	C228.214279,86.794060 225.205627,110.204887 215.174454,132.224121 
	C201.683624,161.837616 177.616119,178.006760 146.296448,184.302383 
	C128.800354,187.819275 111.207687,187.554413 93.647499,185.086761 
	C89.322731,184.479019 88.007233,186.029404 87.566521,189.815796 
	C85.528603,207.324432 83.408386,224.823486 81.318863,242.326126 
	C79.978714,253.551697 78.576752,264.770508 77.347137,276.008179 
	C77.044456,278.774506 75.773888,279.659760 73.141716,279.687561 
	C52.499508,279.905518 31.855194,278.910919 11.213038,279.808563 
	C9.089936,279.900879 6.892536,279.783508 4.638618,278.674530 
	C3.979337,271.222717 6.592486,263.996521 6.766002,256.117584 
M115.748901,55.372143 
	C114.750824,55.392673 113.736748,55.305317 112.757187,55.450649 
	C104.221390,56.717030 103.639969,56.716740 102.907265,64.705780 
	C101.543343,79.577370 99.125237,94.349297 97.543900,109.205078 
	C96.670517,117.410042 94.978470,125.563133 95.130966,134.228043 
	C106.568123,136.538849 117.707115,136.010208 128.763306,133.127426 
	C139.123932,130.425995 146.334167,123.906326 150.598465,114.212021 
	C154.975632,104.261124 156.484589,93.636749 155.345154,82.979546 
	C153.572632,66.401047 145.568039,58.405262 129.132553,55.755707 
	C125.068558,55.100559 120.839668,55.468391 115.748901,55.372143 
z"/>
<path fill="#000000" opacity="1.000000" stroke="none" 
	d="
M937.815186,119.152420 
	C924.207214,117.056236 911.185547,118.916122 898.182190,120.850067 
	C890.276794,122.025803 882.510010,123.878456 874.844910,126.156830 
	C873.774414,126.474998 872.637329,127.033112 870.997314,126.020035 
	C868.993469,118.514137 869.116089,110.308762 867.806580,102.323166 
	C866.893372,96.754326 866.630554,91.081566 865.831238,85.490395 
	C865.261597,81.506050 866.118225,79.120110 870.396790,77.588783 
	C899.367859,67.219955 929.095337,61.576500 959.934753,62.840031 
	C969.264526,63.222282 978.415283,65.064827 987.236938,68.293938 
	C1008.131653,75.942352 1018.966553,91.448219 1022.337097,112.918259 
	C1025.120483,130.648300 1021.873962,148.074310 1019.849121,165.550461 
	C1017.132568,188.995926 1014.168457,212.412689 1011.321472,235.843079 
	C1010.198364,245.086136 1009.012146,254.323029 1008.040344,263.582214 
	C1007.627075,267.519470 1005.840210,269.697937 1002.014038,271.022644 
	C984.492249,277.088959 966.515137,280.950592 948.157104,283.440491 
	C932.258972,285.596680 916.343994,286.159332 900.371887,285.285339 
	C885.153870,284.452637 870.282715,281.883698 856.486572,274.939728 
	C836.773499,265.017670 828.121277,246.504852 830.259705,223.882736 
	C831.435120,211.448151 834.110596,199.531494 840.450745,188.726196 
	C852.277588,168.570251 870.860535,158.641907 893.208069,154.723175 
	C910.641846,151.666077 928.010010,152.578690 945.240234,156.199554 
	C949.484009,157.091385 951.534424,156.070969 952.100769,151.731003 
	C952.944031,145.269745 953.486938,138.788757 952.573303,132.330612 
	C951.544373,125.057121 946.901367,121.006920 937.815186,119.152420 
M920.638123,193.113800 
	C907.350708,195.962524 900.284424,203.953705 897.626587,219.137177 
	C895.945801,228.738510 900.762451,236.997375 910.161072,239.511719 
	C919.466858,242.001236 928.917480,241.458115 938.269531,239.300537 
	C940.443054,238.799103 941.542297,237.489609 941.831177,235.139252 
	C943.327148,222.965836 944.984009,210.812256 946.538452,198.645859 
	C946.903320,195.790604 944.788391,194.910172 942.629211,194.353210 
	C935.670349,192.558228 928.646912,191.454025 920.638123,193.113800 
z"/>
<path fill="#000000" opacity="1.000000" stroke="none" 
	d="
M414.035126,99.150085 
	C423.650757,123.223495 421.959106,147.078781 414.616028,170.847168 
	C410.689117,183.557953 412.491364,181.230713 400.435394,181.266068 
	C368.286407,181.360367 336.136292,181.393112 303.988464,181.175049 
	C299.118927,181.142029 296.875000,182.595016 296.770538,187.449173 
	C296.450409,202.327759 297.491608,216.661224 311.768890,225.798904 
	C317.980377,229.774414 325.019135,231.297684 332.202118,231.570892 
	C353.491089,232.380646 374.388245,229.910416 394.691101,223.179062 
	C396.084747,222.717010 397.453674,221.989944 399.131195,222.353607 
	C400.875427,223.903198 400.171539,226.032486 400.141052,227.909576 
	C399.924744,241.229080 399.528564,254.546051 399.379822,267.865967 
	C399.344086,271.068726 398.216461,272.573639 395.076660,273.438934 
	C373.526978,279.377716 351.704376,283.859222 329.346222,284.912109 
	C313.994263,285.635101 298.739349,284.208313 283.904419,279.857880 
	C255.518372,271.533539 238.032669,252.520447 232.132889,223.896667 
	C225.246460,190.486084 228.080109,157.466141 242.113632,126.199829 
	C259.466919,87.537186 289.880005,66.766624 332.254944,63.579079 
	C350.078033,62.238384 367.501190,63.567509 384.158783,70.543221 
	C397.618256,76.179665 407.540375,85.630280 414.035126,99.150085 
M327.500061,145.111298 
	C335.657562,145.106491 343.815033,145.100952 351.972534,145.097061 
	C361.612579,145.092484 362.031403,144.652222 361.643280,134.918030 
	C361.636658,134.751709 361.639893,134.584915 361.630463,134.418808 
	C360.732269,118.645363 352.082123,110.748116 336.531342,111.130684 
	C318.676636,111.569946 308.378082,124.720985 304.835968,140.512482 
	C304.052551,144.005096 306.096985,145.002274 309.020386,145.033401 
	C314.846588,145.095428 320.673553,145.087173 327.500061,145.111298 
z"/>
</svg>