<?xml version="1.0"?>
<svg viewBox="0 0 600 175" xmlns="http://www.w3.org/2000/svg" xmlns:svg="http://www.w3.org/2000/svg" enable-background="new 0 0 841.9 595.3" version="1.1" xml:space="preserve">
 <g class="layer">
  <title>Layer 1</title>
  <g id="svg_8">
   <g id="svg_1">
    <path d="m80.15,66.5c-1,4.3 -3.3,8.3 -6.9,11.9l-8.8,8.8l-21.2,-36.9l8,-8c2.5,-2.5 5,-4.2 7.4,-4.9c2.4,-0.7 4.8,-0.7 7.2,0.1c2.4,0.8 4.7,2.3 6.9,4.4c3.4,3.4 5.7,7.2 7,11.5c1.2,4.4 1.4,8.8 0.4,13.1m28.5,4.5c2.8,-9.8 2.9,-19.3 0.5,-28.6c-2.5,-9.3 -7.2,-17.6 -14.2,-25c-4.1,-4.1 -8.4,-7.2 -13,-9.5c-4.6,-2.2 -9.5,-3.4 -14.6,-3.5c-5.1,-0.1 -10.2,0.9 -15.2,3.1c-5,2.2 -9.9,5.7 -14.7,10.5l-10,10l-21.5,21.5l69.8,121.1l23.3,-23.3l-20.5,-35.7l13.2,-13.2c8.5,-8.5 14.1,-17.6 16.9,-27.4" id="svg_2"/>
    <path d="m205.25,127.1c-3.4,6.3 -7.5,11.4 -12.2,15.3c-4.8,3.9 -10.3,6.8 -16.7,8.8c-6.4,1.9 -13.5,2.9 -21.5,2.9c-9,0 -16.6,-1.3 -22.9,-3.8c-6.2,-2.5 -11.1,-6 -14.6,-10.6c-3.5,-4.6 -5.6,-10 -6.3,-16.2c-0.7,-6.2 -0.1,-13 1.8,-20.2l23.1,-85.8l33,0l-23.7,88.3c-1,4 -1.3,7.5 -0.8,10.5c0.5,3 1.9,5.5 4.1,7.3c2.2,1.9 5.7,2.8 10.3,2.8c2.7,0 5.1,-0.4 7.3,-1.3c2.2,-0.8 4.2,-2.1 6,-3.8c1.8,-1.7 3.4,-3.7 4.7,-6.1c1.4,-2.4 2.5,-5.1 3.4,-8.2l24.1,-89.7l33,0l-23.5,87.6c-2.3,8.6 -5.2,15.9 -8.6,22.2" id="svg_3"/>
   </g>
   <polygon id="svg_4" points="326.75,17.503400802612305 303.45001220703125,104.20341491699219 285.0500183105469,17.503400802612305 282.0500183105469,17.503400802612305 273.3500061035156,17.503400802612305 252.35000610351562,17.503400802612305 216.05001831054688,152.60340881347656 245.75,152.60340881347656 268.75,67.00340270996094 287.25,152.60340881347656 290.45001220703125,152.60340881347656 295.8500061035156,152.60340881347656 320.0500183105469,152.60340881347656 356.25,17.503400802612305 "/>
   <g id="svg_5">
    <path d="m348.95,84.9c2.1,-8.7 5.1,-17.2 9.2,-25.5c4.1,-8.2 9.1,-15.6 15,-22.1c6,-6.5 12.9,-11.7 20.7,-15.5c7.8,-3.9 16.6,-5.8 26.2,-5.8c9.4,0 17.4,1.8 24.1,5.3c6.7,3.5 11.7,8.9 14.9,16c3.3,7.1 4.5,16.2 3.8,27.1l-32.6,6.4c0.4,-5.8 0.2,-10.7 -0.5,-14.7c-0.7,-4 -2.2,-7 -4.4,-9.2c-2.3,-2.1 -5.6,-3.2 -9.9,-3.2c-4.2,0 -8.3,1.5 -12.1,4.4c-3.8,3 -7.2,6.8 -10.2,11.7c-3,4.8 -5.6,10.1 -7.7,15.8c-2.1,5.7 -3.8,11.4 -4.9,17c-1.2,5.6 -1.7,10.6 -1.7,14.9c0,2.4 0.2,4.6 0.5,6.6c0.3,1.9 0.9,3.7 1.6,5.2c0.8,1.5 1.8,2.8 3,3.9c1.2,1 2.7,1.8 4.3,2.3c1.7,0.5 3.5,0.8 5.6,0.8c4.1,0 7.9,-1 11.4,-3c3.5,-2 6.6,-5 9.5,-9.1c2.8,-4.1 5.5,-9.3 7.9,-15.7l31.2,6.4c-4.1,11.7 -9.2,21.2 -15.2,28.5c-6,7.3 -13.1,12.5 -21.1,15.8c-8,3.3 -16.9,4.9 -26.7,4.9c-4.9,0 -9.4,-0.4 -13.5,-1.3c-4.1,-0.8 -7.8,-2.1 -11.2,-3.9c-3.3,-1.7 -6.3,-3.9 -8.8,-6.4c-2.5,-2.5 -4.6,-5.4 -6.3,-8.8c-1.7,-3.3 -3,-7 -3.9,-10.9c-0.9,-3.9 -1.4,-8.1 -1.4,-12.6c0.1,-8.1 1.2,-16.6 3.2,-25.3" id="svg_6"/>
   </g>
   <polygon id="svg_7" points="561.3500366210938,17.503400802612305 547.3500366210938,69.40339660644531 508.75,69.40339660644531 522.75,17.503400802612305 489.75,17.503400802612305 453.45001220703125,152.60340881347656 486.45001220703125,152.60340881347656 501.35003662109375,97.20341491699219 539.9500122070312,97.20341491699219 525.0499877929688,152.60340881347656 557.8500366210938,152.60340881347656 594.0499877929688,17.503400802612305 "/>
  </g>
 </g>
</svg>