<?xml version="1.0" standalone="no"?>
<!DOCTYPE svg PUBLIC "-//W3C//DTD SVG 20010904//EN"
 "http://www.w3.org/TR/2001/REC-SVG-20010904/DTD/svg10.dtd">
<svg version="1.0" xmlns="http://www.w3.org/2000/svg"
 width="3209.000000pt" height="887.000000pt" viewBox="0 0 3209.000000 887.000000"
 preserveAspectRatio="xMidYMid meet">

<g transform="translate(0.000000,887.000000) scale(0.100000,-0.100000)"
fill="#000000" stroke="none">
<path d="M3074 8839 c-359 -32 -722 -180 -1054 -430 -166 -125 -350 -302
-1223 -1177 l-779 -779 1853 -3214 c1019 -1768 1854 -3216 1856 -3219 5 -5
1243 1232 1243 1243 0 5 -1022 1786 -1074 1869 -9 15 54 83 420 450 236 238
464 474 505 523 438 529 663 1017 756 1640 27 184 25 592 -5 780 -65 417 -218
813 -450 1165 -127 194 -234 325 -401 490 -489 486 -1053 712 -1647 659z m36
-1733 c167 -30 313 -115 470 -275 207 -210 335 -450 397 -741 25 -119 25 -392
0 -508 -37 -170 -91 -297 -189 -445 -48 -72 -126 -157 -359 -392 -164 -165
-299 -297 -302 -295 -13 17 -1117 1940 -1117 1947 0 5 123 131 273 279 290
288 360 344 494 396 119 46 212 56 333 34z"/>
<path d="M22345 8219 c-390 -33 -781 -141 -1114 -308 -531 -267 -994 -665
-1393 -1196 -563 -752 -977 -1831 -1092 -2845 -45 -395 -47 -850 -7 -1114 42
-267 116 -513 228 -746 221 -464 606 -799 1113 -970 476 -160 1164 -191 1765
-79 521 96 983 300 1355 600 294 236 589 591 810 974 174 301 464 968 427 980
-39 13 -1650 335 -1654 331 -3 -3 -27 -60 -54 -128 -72 -178 -227 -486 -310
-613 -273 -420 -574 -643 -956 -710 -99 -17 -279 -19 -373 -5 -301 48 -495
225 -575 526 -62 231 -60 644 6 1034 135 806 463 1635 855 2157 162 216 391
424 571 520 269 143 603 159 852 41 98 -46 213 -166 268 -278 98 -199 127
-380 128 -786 0 -190 3 -290 10 -288 6 2 395 78 865 170 470 91 857 168 860
171 3 2 5 143 5 311 -1 319 -11 442 -56 660 -83 407 -256 740 -524 1007 -143
143 -263 230 -445 324 -365 187 -771 273 -1275 270 -104 -1 -235 -6 -290 -10z"/>
<path d="M7255 8138 c-24 -70 -1259 -4679 -1275 -4756 -54 -266 -74 -598 -51
-823 96 -922 725 -1496 1792 -1634 213 -27 512 -37 746 -26 555 29 964 124
1354 317 694 344 1145 953 1500 2024 41 126 311 1110 698 2552 347 1291 631
2350 631 2353 0 3 -396 5 -880 5 l-879 0 -10 -37 c-74 -281 -1267 -4717 -1282
-4766 -127 -430 -391 -770 -696 -897 -156 -65 -208 -74 -433 -74 -180 0 -215
3 -285 22 -250 68 -405 227 -460 472 -23 99 -23 294 -1 422 13 70 1249 4703
1292 4841 5 16 -41 17 -876 17 -695 0 -882 -3 -885 -12z"/>
<path d="M13526 8133 c-17 -58 -1916 -7136 -1916 -7144 0 -5 310 -8 792 -7
l791 3 607 2257 606 2257 479 -2217 c263 -1219 482 -2236 487 -2260 l10 -42
876 2 875 3 962 3580 961 3580 -785 3 c-482 1 -787 -2 -790 -7 -3 -5 -280
-1031 -615 -2280 -336 -1249 -612 -2271 -615 -2271 -4 0 -222 1018 -485 2263
-264 1244 -481 2270 -484 2280 -4 16 -54 17 -877 17 -823 0 -874 -1 -879 -17z"/>
<path d="M25566 4577 c-528 -1964 -961 -3578 -964 -3584 -3 -10 176 -13 877
-13 l880 0 11 38 c6 20 183 678 394 1462 l382 1425 1017 3 c559 1 1017 -1
1017 -4 0 -3 -173 -650 -384 -1437 -212 -788 -388 -1444 -391 -1459 l-7 -28
876 0 c482 0 876 2 876 5 0 3 432 1613 960 3579 528 1967 960 3578 960 3581 0
3 -393 5 -874 5 l-874 0 -18 -67 c-10 -38 -176 -655 -369 -1373 l-350 -1305
-1018 -3 c-559 -1 -1017 0 -1017 2 0 2 162 608 360 1346 199 737 363 1354 367
1371 l6 29 -879 0 -879 0 -959 -3573z"/>
</g>
</svg>
