<svg version="1.1" id="Layer_1" xmlns="http://www.w3.org/2000/svg" xmlns:xlink="http://www.w3.org/1999/xlink" x="0px" y="0px"
	 width="100%" viewBox="0 0 1440 1440" enable-background="new 0 0 1440 1440" xml:space="preserve">
<path fill="#FFA199" opacity="1.000000" stroke="none" 
	d="
M661.000000,1441.000000 
	C440.666718,1441.000000 220.833405,1441.000000 1.000059,1441.000000 
	C1.000000,1201.000122 1.000000,961.000183 1.000000,721.000244 
	C1.000000,481.000275 1.000000,241.000336 1.000000,1.000282 
	C480.999786,1.000188 960.999573,1.000188 1440.999512,1.000094 
	C1440.999756,480.999725 1440.999756,960.999451 1440.999878,1440.999512 
	C1181.166626,1441.000000 921.333313,1441.000000 661.000000,1441.000000 
M719.783203,1124.759644 
	C735.836487,1152.596802 751.889771,1180.434082 768.383972,1209.035889 
	C772.104675,1205.156250 774.927490,1202.159790 777.808533,1199.220215 
	C783.248535,1193.669922 788.681030,1188.111206 794.191223,1182.630981 
	C802.843628,1174.025757 811.596130,1165.520996 820.232544,1156.899780 
	C825.964966,1151.177368 831.514709,1145.272095 837.242188,1139.544678 
	C846.110962,1130.675781 855.076294,1121.903809 863.972290,1113.062134 
	C869.708130,1107.361450 875.388672,1101.604980 881.102295,1095.881958 
	C887.519592,1089.453979 894.070312,1083.150757 900.246155,1076.499146 
	C901.271362,1075.394897 901.417542,1072.434937 900.702637,1070.937500 
	C897.863037,1064.989990 894.641052,1059.212891 891.342773,1053.498535 
	C880.748474,1035.143311 870.028809,1016.860718 859.413086,998.517944 
	C851.771484,985.314087 844.240051,972.046570 836.620361,958.829956 
	C829.099304,945.784302 821.549316,932.755249 813.974915,919.740540 
	C806.069153,906.156616 797.975891,892.678894 790.288391,878.973083 
	C788.344116,875.506897 784.385925,871.809875 789.405640,867.250793 
	C794.897278,862.263123 799.871460,856.710083 805.155823,851.489075 
	C815.955688,840.818726 826.878479,830.272034 837.624023,819.547546 
	C846.048401,811.139832 854.463623,802.709717 862.558044,793.987976 
	C874.449219,781.174927 886.968140,768.792297 897.528076,754.937134 
	C909.022217,739.856140 918.894226,723.494446 928.902222,707.337280 
	C939.705139,689.896729 947.248657,670.904907 953.655273,651.455078 
	C961.158752,628.675476 965.762207,605.332520 968.233765,581.476257 
	C970.454895,560.035767 970.880615,538.520020 967.642761,517.343201 
	C964.545776,497.088409 960.282043,476.787598 954.045227,457.302704 
	C948.220154,439.104279 940.080505,421.452454 931.186035,404.489990 
	C923.561340,389.949188 913.734009,376.509888 904.289734,362.996552 
	C898.551697,354.786316 892.338806,346.696289 885.191833,339.729309 
	C872.797913,327.647461 859.593567,316.387604 846.553894,304.983398 
	C842.723206,301.633240 838.425598,298.762970 834.117371,296.026459 
	C828.843140,292.676361 823.401184,289.571960 817.907837,286.589600 
	C810.350525,282.486694 802.969177,277.825928 794.982849,274.803833 
	C783.889343,270.605927 772.384155,267.406738 760.902222,264.355988 
	C753.280762,262.330994 745.442261,260.537872 737.610535,260.027344 
	C725.991577,259.269928 714.292297,259.672333 702.627869,259.726105 
	C698.660767,259.744385 694.611755,259.776947 690.746399,260.541992 
	C681.363098,262.399200 671.952576,264.293732 662.763855,266.912781 
	C652.633301,269.800262 642.557068,273.066193 632.799622,277.013641 
	C625.497498,279.967773 618.557861,283.963593 611.781738,288.036163 
	C602.745667,293.467010 593.737305,299.031281 585.254211,305.268707 
	C577.745728,310.789551 570.832031,317.155396 563.913147,323.431976 
	C556.730469,329.947937 549.796326,336.742767 542.867249,343.531769 
	C537.322021,348.964966 531.985229,354.610260 526.488098,360.093445 
	C517.615417,368.943665 508.660370,377.711365 499.791809,386.565765 
	C494.297180,392.051575 488.959259,397.694824 483.442078,403.157410 
	C475.006134,411.509705 466.401276,419.692108 458.007111,428.085632 
	C449.603027,436.489105 441.451447,445.145264 433.040710,453.541962 
	C422.308594,464.256134 411.410553,474.803986 400.615662,485.455597 
	C391.458618,494.491089 382.344238,503.569916 373.215881,512.634460 
	C370.817108,515.016479 369.518768,517.213684 371.673523,520.874207 
	C380.911194,536.567566 389.739136,552.501465 398.869629,568.258850 
	C407.820831,583.706726 417.052124,598.992432 425.980560,614.453247 
	C432.264343,625.334473 438.121521,636.461853 444.391937,647.351074 
	C455.446320,666.548157 466.740112,685.607361 477.801636,704.800354 
	C486.230408,719.425232 494.350830,734.228027 502.796814,748.842773 
	C513.071777,766.622437 523.627686,784.239624 533.908447,802.015991 
	C544.437256,820.221313 554.726013,838.565308 565.220215,856.790833 
	C575.448669,874.554810 585.867065,892.209412 596.085022,909.979370 
	C605.226501,925.877197 614.126465,941.914001 623.282471,957.803345 
	C633.665344,975.821594 644.276306,993.708252 654.672668,1011.718811 
	C663.622131,1027.222900 672.357239,1042.850464 681.280640,1058.369629 
	C693.911133,1080.336060 706.627625,1102.252930 719.783203,1124.759644 
z"/>
<path fill="#010101" opacity="1.000000" stroke="none" 
	d="
M719.545288,1124.475342 
	C706.627625,1102.252930 693.911133,1080.336060 681.280640,1058.369629 
	C672.357239,1042.850464 663.622131,1027.222900 654.672668,1011.718811 
	C644.276306,993.708252 633.665344,975.821594 623.282471,957.803345 
	C614.126465,941.914001 605.226501,925.877197 596.085022,909.979370 
	C585.867065,892.209412 575.448669,874.554810 565.220215,856.790833 
	C554.726013,838.565308 544.437256,820.221313 533.908447,802.015991 
	C523.627686,784.239624 513.071777,766.622437 502.796814,748.842773 
	C494.350830,734.228027 486.230408,719.425232 477.801636,704.800354 
	C466.740112,685.607361 455.446320,666.548157 444.391937,647.351074 
	C438.121521,636.461853 432.264343,625.334473 425.980560,614.453247 
	C417.052124,598.992432 407.820831,583.706726 398.869629,568.258850 
	C389.739136,552.501465 380.911194,536.567566 371.673523,520.874207 
	C369.518768,517.213684 370.817108,515.016479 373.215881,512.634460 
	C382.344238,503.569916 391.458618,494.491089 400.615662,485.455597 
	C411.410553,474.803986 422.308594,464.256134 433.040710,453.541962 
	C441.451447,445.145264 449.603027,436.489105 458.007111,428.085632 
	C466.401276,419.692108 475.006134,411.509705 483.442078,403.157410 
	C488.959259,397.694824 494.297180,392.051575 499.791809,386.565765 
	C508.660370,377.711365 517.615417,368.943665 526.488098,360.093445 
	C531.985229,354.610260 537.322021,348.964966 542.867249,343.531769 
	C549.796326,336.742767 556.730469,329.947937 563.913147,323.431976 
	C570.832031,317.155396 577.745728,310.789551 585.254211,305.268707 
	C593.737305,299.031281 602.745667,293.467010 611.781738,288.036163 
	C618.557861,283.963593 625.497498,279.967773 632.799622,277.013641 
	C642.557068,273.066193 652.633301,269.800262 662.763855,266.912781 
	C671.952576,264.293732 681.363098,262.399200 690.746399,260.541992 
	C694.611755,259.776947 698.660767,259.744385 702.627869,259.726105 
	C714.292297,259.672333 725.991577,259.269928 737.610535,260.027344 
	C745.442261,260.537872 753.280762,262.330994 760.902222,264.355988 
	C772.384155,267.406738 783.889343,270.605927 794.982849,274.803833 
	C802.969177,277.825928 810.350525,282.486694 817.907837,286.589600 
	C823.401184,289.571960 828.843140,292.676361 834.117371,296.026459 
	C838.425598,298.762970 842.723206,301.633240 846.553894,304.983398 
	C859.593567,316.387604 872.797913,327.647461 885.191833,339.729309 
	C892.338806,346.696289 898.551697,354.786316 904.289734,362.996552 
	C913.734009,376.509888 923.561340,389.949188 931.186035,404.489990 
	C940.080505,421.452454 948.220154,439.104279 954.045227,457.302704 
	C960.282043,476.787598 964.545776,497.088409 967.642761,517.343201 
	C970.880615,538.520020 970.454895,560.035767 968.233765,581.476257 
	C965.762207,605.332520 961.158752,628.675476 953.655273,651.455078 
	C947.248657,670.904907 939.705139,689.896729 928.902222,707.337280 
	C918.894226,723.494446 909.022217,739.856140 897.528076,754.937134 
	C886.968140,768.792297 874.449219,781.174927 862.558044,793.987976 
	C854.463623,802.709717 846.048401,811.139832 837.624023,819.547546 
	C826.878479,830.272034 815.955688,840.818726 805.155823,851.489075 
	C799.871460,856.710083 794.897278,862.263123 789.405640,867.250793 
	C784.385925,871.809875 788.344116,875.506897 790.288391,878.973083 
	C797.975891,892.678894 806.069153,906.156616 813.974915,919.740540 
	C821.549316,932.755249 829.099304,945.784302 836.620361,958.829956 
	C844.240051,972.046570 851.771484,985.314087 859.413086,998.517944 
	C870.028809,1016.860718 880.748474,1035.143311 891.342773,1053.498535 
	C894.641052,1059.212891 897.863037,1064.989990 900.702637,1070.937500 
	C901.417542,1072.434937 901.271362,1075.394897 900.246155,1076.499146 
	C894.070312,1083.150757 887.519592,1089.453979 881.102295,1095.881958 
	C875.388672,1101.604980 869.708130,1107.361450 863.972290,1113.062134 
	C855.076294,1121.903809 846.110962,1130.675781 837.242188,1139.544678 
	C831.514709,1145.272095 825.964966,1151.177368 820.232544,1156.899780 
	C811.596130,1165.520996 802.843628,1174.025757 794.191223,1182.630981 
	C788.681030,1188.111206 783.248535,1193.669922 777.808533,1199.220215 
	C774.927490,1202.159790 772.104675,1205.156250 768.383972,1209.035889 
	C751.889771,1180.434082 735.836487,1152.596802 719.545288,1124.475342 
M714.158264,451.345642 
	C710.738647,450.069366 707.416748,448.175903 703.883606,447.616547 
	C680.232422,443.872284 659.764038,450.924072 642.123108,466.704224 
	C636.498901,471.735199 631.127319,477.055786 625.758179,482.363281 
	C614.141235,493.846832 602.997742,505.851044 590.844849,516.731201 
	C585.546875,521.474365 585.462219,524.467773 589.130371,529.959778 
	C594.799988,538.448608 599.546936,547.554382 604.669373,556.407715 
	C610.545166,566.563171 616.465149,576.693665 622.252808,586.899109 
	C628.365479,597.677734 634.212830,608.608276 640.412476,619.335815 
	C650.672974,637.089905 661.203369,654.688049 671.470642,672.438293 
	C681.836975,690.359924 692.044739,708.373535 702.264099,726.379639 
	C704.042725,729.513733 705.895447,729.207703 708.109741,726.979614 
	C712.995972,722.063110 717.966858,717.228699 722.781250,712.242920 
	C735.721375,698.842285 748.447510,685.231506 761.547791,671.990295 
	C771.466858,661.964417 778.777100,650.254456 784.454102,637.556763 
	C793.514343,617.291809 797.795044,596.135803 795.969666,573.737976 
	C794.661926,557.690613 791.083435,542.330261 785.042175,527.497681 
	C778.758179,512.069214 770.118896,498.018799 759.301636,485.373352 
	C754.585205,479.859924 749.991760,473.906372 744.209534,469.716095 
	C734.931763,462.992767 724.712219,457.569061 714.158264,451.345642 
z"/>
<path fill="#FDA098" opacity="1.000000" stroke="none" 
	d="
M714.524475,451.470886 
	C724.712219,457.569061 734.931763,462.992767 744.209534,469.716095 
	C749.991760,473.906372 754.585205,479.859924 759.301636,485.373352 
	C770.118896,498.018799 778.758179,512.069214 785.042175,527.497681 
	C791.083435,542.330261 794.661926,557.690613 795.969666,573.737976 
	C797.795044,596.135803 793.514343,617.291809 784.454102,637.556763 
	C778.777100,650.254456 771.466858,661.964417 761.547791,671.990295 
	C748.447510,685.231506 735.721375,698.842285 722.781250,712.242920 
	C717.966858,717.228699 712.995972,722.063110 708.109741,726.979614 
	C705.895447,729.207703 704.042725,729.513733 702.264099,726.379639 
	C692.044739,708.373535 681.836975,690.359924 671.470642,672.438293 
	C661.203369,654.688049 650.672974,637.089905 640.412476,619.335815 
	C634.212830,608.608276 628.365479,597.677734 622.252808,586.899109 
	C616.465149,576.693665 610.545166,566.563171 604.669373,556.407715 
	C599.546936,547.554382 594.799988,538.448608 589.130371,529.959778 
	C585.462219,524.467773 585.546875,521.474365 590.844849,516.731201 
	C602.997742,505.851044 614.141235,493.846832 625.758179,482.363281 
	C631.127319,477.055786 636.498901,471.735199 642.123108,466.704224 
	C659.764038,450.924072 680.232422,443.872284 703.883606,447.616547 
	C707.416748,448.175903 710.738647,450.069366 714.524475,451.470886 
z"/>
</svg>