<?xml version="1.0" encoding="utf-8"?>
<!-- Generator: Adobe Illustrator 28.0.0, SVG Export Plug-In . SVG Version: 6.00 Build 0)  -->
<svg version="1.1" id="Layer_1" xmlns="http://www.w3.org/2000/svg" xmlns:xlink="http://www.w3.org/1999/xlink" x="0px" y="0px"
	 viewBox="0 0 841.9 595.3" style="enable-background:new 0 0 841.9 595.3;" xml:space="preserve">
<g>
	<path d="M207.7,285.9c-1,4.3-3.3,8.3-6.9,11.9l-8.8,8.8l-21.2-36.9l8-8c2.5-2.5,5-4.2,7.4-4.9c2.4-0.7,4.8-0.7,7.2,0.1
		c2.4,0.8,4.7,2.3,6.9,4.4c3.4,3.4,5.7,7.2,7,11.5C208.5,277.2,208.7,281.6,207.7,285.9 M236.2,290.4c2.8-9.8,2.9-19.3,0.5-28.6
		c-2.5-9.3-7.2-17.6-14.2-25c-4.1-4.1-8.4-7.2-13-9.5c-4.6-2.2-9.5-3.4-14.6-3.5c-5.1-0.1-10.2,0.9-15.2,3.1
		c-5,2.2-9.9,5.7-14.7,10.5l-10,10l-21.5,21.5L203.3,390l23.3-23.3L206.1,331l13.2-13.2C227.8,309.3,233.4,300.2,236.2,290.4"/>
	<path d="M332.8,346.5c-3.4,6.3-7.5,11.4-12.2,15.3c-4.8,3.9-10.3,6.8-16.7,8.8c-6.4,1.9-13.5,2.9-21.5,2.9c-9,0-16.6-1.3-22.9-3.8
		c-6.2-2.5-11.1-6-14.6-10.6c-3.5-4.6-5.6-10-6.3-16.2c-0.7-6.2-0.1-13,1.8-20.2l23.1-85.8h33l-23.7,88.3c-1,4-1.3,7.5-0.8,10.5
		c0.5,3,1.9,5.5,4.1,7.3c2.2,1.9,5.7,2.8,10.3,2.8c2.7,0,5.1-0.4,7.3-1.3c2.2-0.8,4.2-2.1,6-3.8c1.8-1.7,3.4-3.7,4.7-6.1
		c1.4-2.4,2.5-5.1,3.4-8.2l24.1-89.7h33l-23.5,87.6C339.1,332.9,336.2,340.2,332.8,346.5"/>
</g>
<polygon points="454.3,236.9 431,323.6 412.6,236.9 409.6,236.9 400.9,236.9 379.9,236.9 343.6,372 373.3,372 396.3,286.4 
	414.8,372 418,372 423.4,372 447.6,372 483.8,236.9 "/>
<g>
	<path d="M477.5,304.3c2.1-8.7,5.1-17.2,9.2-25.5c4.1-8.2,9.1-15.6,15-22.1c6-6.5,12.9-11.7,20.7-15.5c7.8-3.9,16.6-5.8,26.2-5.8
		c9.4,0,17.4,1.8,24.1,5.3c6.7,3.5,11.7,8.9,14.9,16c3.3,7.1,4.5,16.2,3.8,27.1l-32.6,6.4c0.4-5.8,0.2-10.7-0.5-14.7
		c-0.7-4-2.2-7-4.4-9.2c-2.3-2.1-5.6-3.2-9.9-3.2c-4.2,0-8.3,1.5-12.1,4.4c-3.8,3-7.2,6.8-10.2,11.7c-3,4.8-5.6,10.1-7.7,15.8
		c-2.1,5.7-3.8,11.4-4.9,17c-1.2,5.6-1.7,10.6-1.7,14.9c0,2.4,0.2,4.6,0.5,6.6c0.3,1.9,0.9,3.7,1.6,5.2c0.8,1.5,1.8,2.8,3,3.9
		c1.2,1,2.7,1.8,4.3,2.3c1.7,0.5,3.5,0.8,5.6,0.8c4.1,0,7.9-1,11.4-3c3.5-2,6.6-5,9.5-9.1c2.8-4.1,5.5-9.3,7.9-15.7l31.2,6.4
		c-4.1,11.7-9.2,21.2-15.2,28.5c-6,7.3-13.1,12.5-21.1,15.8c-8,3.3-16.9,4.9-26.7,4.9c-4.9,0-9.4-0.4-13.5-1.3
		c-4.1-0.8-7.8-2.1-11.2-3.9c-3.3-1.7-6.3-3.9-8.8-6.4c-2.5-2.5-4.6-5.4-6.3-8.8c-1.7-3.3-3-7-3.9-10.9c-0.9-3.9-1.4-8.1-1.4-12.6
		C474.4,321.5,475.5,313,477.5,304.3"/>
</g>
<polygon points="689.9,236.9 675.9,288.8 637.3,288.8 651.3,236.9 618.3,236.9 582,372 615,372 629.9,316.6 668.5,316.6 653.6,372 
	686.4,372 722.6,236.9 "/>
</svg>
